<?xml version="1.0" standalone="no"?>
<!DOCTYPE svg PUBLIC "-//W3C//DTD SVG 20010904//EN"
 "http://www.w3.org/TR/2001/REC-SVG-20010904/DTD/svg10.dtd">
<svg version="1.0" xmlns="http://www.w3.org/2000/svg"
 width="256.000000pt" height="256.000000pt" viewBox="0 0 256.000000 256.000000"
 preserveAspectRatio="xMidYMid meet">
<metadata>
Created by potrace 1.16, written by Peter Selinger 2001-2019
</metadata>
<g transform="translate(0.000000,256.000000) scale(0.100000,-0.100000)"
fill="#3B99FC" stroke="none">
<path d="M1025 2545 c-153 -29 -338 -108 -484 -208 -96 -65 -251 -220 -317
-317 -103 -150 -177 -326 -209 -495 -20 -108 -20 -386 0 -494 47 -247 169
-475 355 -661 185 -185 422 -312 665 -356 106 -19 384 -19 490 0 243 44 480
171 665 356 186 186 308 414 355 661 20 110 20 388 0 498 -47 247 -169 475
-355 661 -185 185 -422 312 -665 356 -101 18 -402 17 -500 -1z m-115 -785
c117 -148 217 -273 223 -277 6 -3 3 4 -6 17 -18 25 -8 50 19 50 8 0 14 3 14 8
0 4 19 15 41 25 l42 18 146 -111 146 -111 6 28 c4 15 8 114 9 218 1 105 4 185
6 178 6 -14 47 7 282 149 l32 20 0 -728 0 -728 -27 26 c-43 39 -791 618 -808
624 -13 5 -15 -16 -16 -152 0 -88 -4 -151 -7 -141 -4 10 -19 24 -32 31 -14 7
-79 45 -145 84 -102 59 -121 68 -127 54 -4 -10 -7 100 -7 244 -1 143 -4 369
-8 502 -3 133 -3 242 0 242 3 0 101 -121 217 -270z"/>
</g>
</svg>
